<?xml version="1.0" encoding="utf-8"?>
<!-- Svg Vector Icons : http://www.onlinewebfonts.com/icon -->
<!DOCTYPE svg PUBLIC "-//W3C//DTD SVG 1.1//EN" "http://www.w3.org/Graphics/SVG/1.1/DTD/svg11.dtd">
<svg version="1.1" xmlns="http://www.w3.org/2000/svg" xmlns:xlink="http://www.w3.org/1999/xlink" x="0px" y="0px" viewBox="0 0 1000 1000" enable-background="new 0 0 1000 1000" xml:space="preserve">
<metadata> Svg Vector Icons : http://www.onlinewebfonts.com/icon </metadata>
<g><path d="M760,128.2h-33.8c-12.4-27.8-40.2-47.3-72.6-47.3H589C579.7,40.3,543.3,10,500,10c-43.3,0-79.7,30.3-89,70.9h-64.6c-32.4,0-60.2,19.5-72.6,47.3h-23c-92.2,0-173,75.8-173,162.2V834c0,86,77.6,156,173,156H760c91,0,162.3-68.5,162.3-156V290.4C922.2,201,849.4,128.2,760,128.2z M346.4,121.7h82.7c11.3,0,20.4-9.1,20.4-20.4c0-27.8,22.6-50.5,50.5-50.5c27.8,0,50.5,22.7,50.5,50.5c0,11.3,9.1,20.4,20.4,20.4h82.8c21.3,0,38.7,17.4,38.7,38.7c0,21.3-17.4,38.7-38.7,38.7H346.4c-21.3,0-38.7-17.3-38.7-38.7C307.7,139.1,325.1,121.7,346.4,121.7z M881.3,833.9c0,65.7-52.2,115.2-121.3,115.2H250.8c-63.8,0-132.2-46.3-132.2-115.2V290.4c0-64.7,61.8-121.4,132.2-121.4h16.9c4.3,39.8,37.8,70.9,78.6,70.9h307.2c40.9,0,74.3-31.1,78.7-70.9H760c66.9,0,121.3,54.5,121.3,121.4L881.3,833.9L881.3,833.9z"/><path d="M196,633.1c0,11.3,9.1,20.4,20.4,20.4c11.3,0,20.4-9.1,20.4-20.4c0-60.5,49.1-109.6,109.5-109.6c60.4,0,109.6,49.1,109.6,109.6c0,11.3,9.1,20.4,20.4,20.4c11.3,0,20.4-9.2,20.4-20.4c0-59-34.2-110-83.8-134.6c22.2-18.9,36.5-46.7,36.5-78.1c0-56.9-46.3-103.1-103.1-103.1c-56.9,0-103.1,46.3-103.1,103.1c0,31.4,14.4,59.1,36.5,78.1C230.2,523.1,196,574.1,196,633.1z M346.4,358.1c34.3,0,62.3,27.9,62.3,62.3c0,34.3-27.9,62.3-62.3,62.3c-34.4,0-62.3-27.9-62.3-62.3S312,358.1,346.4,358.1z"/><path d="M783.6,719H216.4c-11.3,0-20.4,9.1-20.4,20.4c0,11.3,9.1,20.4,20.4,20.4h567.2c11.3,0,20.4-9.1,20.4-20.4C804,728.1,794.9,719,783.6,719z"/><path d="M783.6,837.2H216.4c-11.3,0-20.4,9.1-20.4,20.4c0,11.3,9.1,20.5,20.4,20.5h567.2c11.3,0,20.4-9.1,20.4-20.5C804,846.3,794.9,837.2,783.6,837.2z"/><path d="M783.6,600.8H570.9c-11.3,0-20.4,9.1-20.4,20.4c0,11.3,9.1,20.4,20.4,20.4h212.7c11.3,0,20.4-9.1,20.4-20.4C804,609.9,794.9,600.8,783.6,600.8z"/><path d="M783.6,482.7H570.9c-11.3,0-20.4,9.1-20.4,20.4c0,11.2,9.1,20.4,20.4,20.4h212.7c11.3,0,20.4-9.2,20.4-20.4C804,491.8,794.9,482.7,783.6,482.7z"/></g>
</svg>